# Blender 4.0.2
# www.blender.org
mtllib wheatley.mtl
o Plane
v -0.292893 1.707107 0.000000
v -1.707107 0.292893 0.000000
v 0.707107 0.707107 1.414214
v -0.707107 -0.707107 1.414214
v 0.292893 -1.707107 0.000000
v 1.707107 -0.292893 0.000000
v -0.707107 -0.707107 -1.414214
v 0.707107 0.707107 -1.414214
vn -0.5000 0.5000 0.7071
vn -0.5000 0.5000 -0.7071
vn 0.5000 -0.5000 -0.7071
vn 0.5000 -0.5000 0.7071
vn -0.7071 -0.7071 -0.0000
vn 0.7071 0.7071 -0.0000
vt -0.328639 0.004966
vt 0.002217 0.335822
vt -0.328639 0.335822
vt 0.333073 0.004966
vt 0.333073 0.335822
vt 0.663929 0.335822
vt 0.333073 0.666678
vt 0.663929 0.997534
vt 0.333073 0.997534
vt 0.002217 0.666678
vt 0.994785 0.997534
vt 0.663929 0.666678
vt 0.994786 0.666678
vt 0.002217 0.004966
s 0
usemtl personality_sphere
f 3/1/1 2/2/1 4/3/1
f 2/2/2 8/4/2 7/5/2
f 8/6/3 5/7/3 7/5/3
f 5/7/4 3/8/4 4/9/4
f 7/5/5 4/10/5 2/2/5
f 1/11/6 6/12/6 8/13/6
f 3/1/1 1/14/1 2/2/1
f 2/2/2 1/14/2 8/4/2
f 8/6/3 6/12/3 5/7/3
f 5/7/4 6/12/4 3/8/4
f 7/5/5 5/7/5 4/10/5
f 1/11/6 3/8/6 6/12/6
